<?xml version="1.0" encoding="UTF-8"?>
<!-- Generator: Adobe Illustrator 25.4.1, SVG Export Plug-In . SVG Version: 6.00 Build 0)  -->
<svg version="1.1" id="Layer_1" xmlns="http://www.w3.org/2000/svg" xmlns:xlink="http://www.w3.org/1999/xlink" x="0px" y="0px" viewBox="0 0 102 38.3" style="enable-background:new 0 0 102 38.3;" xml:space="preserve">
<style type="text/css">
	.st0{fill:#F9F9F9;}
	.st1{fill:#2CCBE5;}
	.st2{fill:#00D59A;}
	.st3{fill:#FF2463;}
	.st4{fill:#FFDB2C;}
</style>
<g>
	<polygon class="st0" points="26.7,13.6 32.8,13.6 32.8,15.5 28.9,15.5 28.9,17.4 32.2,17.4 32.2,19.2 28.9,19.2 28.9,21.5    32.9,21.5 32.9,23.4 26.7,23.4  "/>
	<path class="st0" d="M40.3,19.5c-0.6-0.9-1.2-1.7-1.9-2.5l0,0c0,0.9,0,1.9,0,2.8v3.7h-2.1v-9.9h2l3,4c0.6,0.9,1.2,1.7,1.9,2.5l0,0   c0-0.9,0-1.9,0-2.8v-3.7h2.1v9.9h-2L40.3,19.5z"/>
	<polygon class="st0" points="51.3,15.5 48.1,15.5 48.1,13.6 56.6,13.6 56.6,15.5 53.4,15.5 53.4,23.4 51.3,23.4 51.3,15.5  "/>
	<path class="st0" d="M62.7,17.9c0.6,0,1-0.1,1.4-0.2c0.4-0.2,0.6-0.5,0.6-1c0-0.5-0.2-0.8-0.6-1c-0.3-0.2-0.9-0.3-1.6-0.3h-0.8v2.4   L62.7,17.9L62.7,17.9z M59.4,13.6h3.1c1.2,0,2.3,0.2,3.1,0.7c0.7,0.5,1.2,1.2,1.2,2.3c0,1.3-0.7,2.3-2,2.7l2.8,4.2H65l-2.5-3.9h-1   v3.9h-2.2V13.6z"/>
	<path class="st0" d="M77.7,18.5c0-1.7-1.3-3.1-3-3.1c-1.7,0-3,1.4-3,3.1c0,1.7,1.3,3.1,3,3.1C76.4,21.6,77.7,20.2,77.7,18.5    M69.6,18.5c0-2.9,2.2-5.1,5.1-5.1c2.9,0,5.1,2.2,5.1,5.1c0,2.9-2.2,5.1-5.1,5.1C71.8,23.6,69.6,21.4,69.6,18.5"/>
	<path class="st0" d="M86.1,18.1c0.9,0,1.3,0,1.7-0.2c0.4-0.2,0.6-0.6,0.6-1.1c0-0.6-0.2-1-0.7-1.2c-0.4-0.2-0.9-0.2-1.7-0.2h-0.7   v2.7H86.1z M83.1,13.6h2.9c1.2,0,2.2,0.1,2.9,0.5c0.9,0.5,1.6,1.3,1.6,2.6c0,1.2-0.6,2.1-1.4,2.6c-0.8,0.4-1.7,0.6-3.2,0.6h-0.7   v3.5h-2.2L83.1,13.6L83.1,13.6z"/>
	<path class="st0" d="M96,19l-3.8-5.4h2.5l1.2,1.8c0.4,0.6,0.8,1.2,1.2,1.8h0c0.4-0.6,0.8-1.2,1.2-1.8l1.2-1.8h2.4L98.2,19v4.5H96   L96,19L96,19z"/>
	<path class="st1" d="M39.3,7.8c1.8,0,3.3-1.5,3.3-3.3s-1.5-3.3-3.3-3.3c-1.8,0-3.3,1.5-3.3,3.3S37.4,7.8,39.3,7.8"/>
	<path class="st2" d="M1.5,9h25.5c2.5,0,4.5-2,4.5-4.5c0-2.5-2-4.5-4.5-4.5H1.9C0.9,0,0,0.9,0,1.9v5.5C0,8.3,0.7,9,1.5,9"/>
	<path class="st3" d="M0,37.5v-7.3c0-1.2,0.9-2.1,2.1-2.1h29.4c1.1,0,1.4,1.3,0.3,1.6L1.3,38.3C0.6,38.4,0,38,0,37.5"/>
	<path class="st4" d="M3.7,22.9H17c2,0,3.7-1.7,3.7-3.7v-1.6c0-2-1.7-3.7-3.7-3.7H3.7c-2,0-3.7,1.7-3.7,3.7v1.6   C0,21.2,1.7,22.9,3.7,22.9"/>
</g>
</svg>