<svg xmlns="http://www.w3.org/2000/svg" version="1.1" xmlns:xlink="http://www.w3.org/1999/xlink" xmlns:svgjs="http://svgjs.com/svgjs" width="43" height="38.3"><svg width="43" height="38.3" xmlns="http://www.w3.org/2000/svg" xml:space="preserve" version="1.1">

 <g>
  <title>Layer 1</title>
  <path id="SvgjsPath1003" fill="#2CCBE5" d="m39.3,7.8c1.8,0 3.3,-1.5 3.3,-3.3c0,-1.8 -1.5,-3.3 -3.3,-3.3c-1.8,0 -3.3,1.5 -3.3,3.3c-0.1,1.8 1.4,3.3 3.3,3.3" class="st1"></path>
  <path id="SvgjsPath1002" fill="#00D59A" d="m1.5,9l25.5,0c2.5,0 4.5,-2 4.5,-4.5c0,-2.5 -2,-4.5 -4.5,-4.5l-25.1,0c-1,0 -1.9,0.9 -1.9,1.9l0,5.5c0,0.9 0.7,1.6 1.5,1.6" class="st2"></path>
  <path id="SvgjsPath1001" fill="#FF2463" d="m0,37.5l0,-7.3c0,-1.2 0.9,-2.1 2.1,-2.1l29.4,0c1.1,0 1.4,1.3 0.3,1.6l-30.5,8.6c-0.7,0.1 -1.3,-0.3 -1.3,-0.8" class="st3"></path>
  <path id="SvgjsPath1000" fill="#FFDB2C" d="m3.7,22.9l13.3,0c2,0 3.7,-1.7 3.7,-3.7l0,-1.6c0,-2 -1.7,-3.7 -3.7,-3.7l-13.3,0c-2,0 -3.7,1.7 -3.7,3.7l0,1.6c0,2 1.7,3.7 3.7,3.7" class="st4"></path>
 </g>
</svg><style>@media (prefers-color-scheme: light) { :root { filter: none; } }
</style></svg>