<?xml version="1.0" encoding="UTF-8" standalone="no"?>
<!DOCTYPE svg PUBLIC "-//W3C//DTD SVG 1.1//EN"
 "http://www.w3.org/Graphics/SVG/1.1/DTD/svg11.dtd">
<!-- Generated by graphviz version 2.47.1 (20210417.1919)
 -->
<!-- Pages: 1 -->
<svg width="276pt" height="98pt"
 viewBox="0.00 0.00 276.00 98.00" xmlns="http://www.w3.org/2000/svg" xmlns:xlink="http://www.w3.org/1999/xlink">
<g id="graph0" class="graph" transform="scale(1 1) rotate(0) translate(4 94)">
<polygon fill="white" stroke="transparent" points="-4,4 -4,-94 272,-94 272,4 -4,4"/>
<!-- a -->
<g id="node1" class="node">
<title>a</title>
<polygon fill="none" stroke="black" points="54,-63 0,-63 0,-27 54,-27 54,-63"/>
<text text-anchor="middle" x="27" y="-41.3" font-family="Times New Roman,serif" font-size="14.00">a</text>
</g>
<!-- b -->
<g id="node4" class="node">
<title>b</title>
<polygon fill="none" stroke="black" points="161,-63 107,-63 107,-27 161,-27 161,-63"/>
<text text-anchor="middle" x="134" y="-41.3" font-family="Times New Roman,serif" font-size="14.00">b</text>
</g>
<!-- a&#45;&gt;b -->
<g id="edge3" class="edge">
<title>a&#45;&gt;b</title>
<path fill="none" stroke="black" d="M54.23,-45C67,-45 82.58,-45 96.5,-45"/>
<polygon fill="black" stroke="black" points="96.75,-48.5 106.75,-45 96.75,-41.5 96.75,-48.5"/>
<text text-anchor="middle" x="80.5" y="-48.8" font-family="Times New Roman,serif" font-size="14.00">res</text>
</g>
<!-- c -->
<g id="node2" class="node">
<title>c</title>
<polygon fill="none" stroke="black" points="268,-90 214,-90 214,-54 268,-54 268,-90"/>
<text text-anchor="middle" x="241" y="-68.3" font-family="Times New Roman,serif" font-size="14.00">c</text>
</g>
<!-- d -->
<g id="node3" class="node">
<title>d</title>
<polygon fill="none" stroke="black" points="268,-36 214,-36 214,0 268,0 268,-36"/>
<text text-anchor="middle" x="241" y="-14.3" font-family="Times New Roman,serif" font-size="14.00">d</text>
</g>
<!-- b&#45;&gt;c -->
<g id="edge1" class="edge">
<title>b&#45;&gt;c</title>
<path fill="none" stroke="black" d="M161.23,-51.74C174.13,-55.06 189.89,-59.11 203.91,-62.72"/>
<polygon fill="black" stroke="black" points="203.19,-66.15 213.75,-65.25 204.93,-59.37 203.19,-66.15"/>
<text text-anchor="middle" x="187.5" y="-63.8" font-family="Times New Roman,serif" font-size="14.00">res</text>
</g>
<!-- b&#45;&gt;d -->
<g id="edge2" class="edge">
<title>b&#45;&gt;d</title>
<path fill="none" stroke="black" d="M161.23,-38.26C174.13,-34.94 189.89,-30.89 203.91,-27.28"/>
<polygon fill="black" stroke="black" points="204.93,-30.63 213.75,-24.75 203.19,-23.85 204.93,-30.63"/>
</g>
</g>
</svg>
